<svg xmlns="http://www.w3.org/2000/svg" viewBox="0 0 1747.11592 700"><defs><style>.a{fill:#23aee7;}</style></defs><title>logo</title><path class="a" d="M1458.6136,249.69858c30.9785-5.73908,86-13.19858,86-13.19858-2.90493-17.72667-4-34.5-4-34.5,25.33333-8.66667,52.23876-7.278,52.23876-7.278,2.34458,15.19466,3.92791,36.11132,3.92791,36.11132C1621.45742,227.06227,1680.6136,219.5,1680.6136,219.5c-2.1087-15.58333-3-33-3-33,39.72463-8.08333,57.66667-2.5,57.66667-2.5,1.39318,13.158,1.51164,29.99947,1.51164,29.99947,30.02957-4.58518,75.82169-8.74947,75.82169-8.74947,8.558,20,2.75,42.25,2.75,42.25-50.91667.83333-76.41667,3-76.41667,3,0.57177,18.16667-.83333,39-0.83333,39-22,4.16667-51.75,0-51.75,0-2.15306-12.79822-3.98779-36.49635-3.98779-36.49635-42.87071,2.01553-82.76221,6.74635-82.76221,6.74635,1.25,11.5,3.25,36,3.25,36-17.52533,4.881-47,.25-47,0.25-3.25-7.75-7.40713-32.87761-7.40713-32.87761-48.74641,6.09313-82.34287,12.11327-82.34287,12.11327C1458.49509,263.75,1458.6136,249.69858,1458.6136,249.69858Z" transform="translate(-77.6136 -50)"/><path class="a" d="M1505.75438,298.61109c45.82179-15.61109,239.37792-36.78693,271.38875-20.27776,7.65583,10.1575,4.18468,110.30593-10.19619,134-62.61913,9.30593-217.02572,24.33333-231.02572,13.33333C1523.28027,404.731,1493.6136,311.79158,1505.75438,298.61109ZM1560.1136,348.25s81.49034-17.46252,173.642-17.5c0,0,3.358-12.5,0-30.25,0,0-93.37994,5.83333-181.16471,20.32059C1552.59091,320.82059,1558.64359,335.35681,1560.1136,348.25Zm8.668,50.50033s68.2819-9.417,163.41254-13.10192c0,0,2.32512-9.14841,1.3009-25.7132,0,0-76.96226,13.36554-169.38242,13.69888C1564.11259,373.63409,1567.6136,381,1568.78157,398.75033Z" transform="translate(-77.6136 -50)"/><path class="a" d="M1463.21193,463.37688C1522.64652,456.60316,1581.6136,449,1581.6136,449c11.66667-23.66667,20-37.69538,20-37.69538,39.93667-6.83333,50,7.02872,50,7.02872-5.5768,14.90668-10,24.16667-10,24.16667,66.28762-8.869,176.13778-21.51451,176.13778-21.51451,14.52889,13.34784,1.86222,44.31052,1.86222,44.31052C1750.3992,473.60694,1625.28027,471,1625.28027,471c-76.68936,79-152.16667,104-152.16667,104a41.15548,41.15548,0,0,1-10.5-33.33333c68.33333-30.5,94.49555-63.07444,94.49555-63.07444C1512.05474,485.08116,1466.28027,488,1466.28027,488,1452.28027,476.12977,1463.21193,463.37688,1463.21193,463.37688Z" transform="translate(-77.6136 -50)"/><path class="a" d="M1662.1136,465c9.5-18.36714,40-18,40-18,44.25,49.25,113.75,55.5,113.75,55.5,7.5,24.75-27.25,49.5-27.25,49.5C1700.71295,497.94615,1700.64214,497.6761,1662.1136,465Z" transform="translate(-77.6136 -50)"/><path class="a" d="M1550.40068,518.66a591.66081,591.66081,0,0,1,77.34772-7.94229C1625.6136,492.2057,1623.6136,467,1623.6136,467c17.38521-11.5,52.66667.66667,52.66667,0.66667-0.77392,22.39336-2.33333,41-2.33333,41,50.66667-2,75.66667,1.66667,75.66667,1.66667,14.33333,50,.60044,89.86174.60044,89.86174C1734.962,607.97829,1709.6136,609,1709.6136,609c-12.19411-3.71534-14.33333-34-14.33333-34,18.93967,3.98694,32-3,32-3,1.33333-25.16667-.66667-29.5-0.66667-29.5-18.84084-4.44352-55,.5-55,0.5,0.66667,49.33333-3.0767,100.73581-3.0767,100.73581-19.33333,7.33333-37.9233,1.12329-37.9233,1.12329-2.66667-58.66667-3.54689-99.92018-3.54689-99.92018-17.20311-1.06393-41.94456,3.01364-41.94456,3.01364a524.376,524.376,0,0,1-.17521,64.7141,90.68784,90.68784,0,0,1-33.33333,1C1549.1136,597.5,1550.40068,518.66,1550.40068,518.66Z" transform="translate(-77.6136 -50)"/><path class="a" d="M727.10134,213.69549c37.84332,1.63942,72.14354,5.55167,90.71468,8.74358,26.23075,4.50841,66.66983,10.383,74.32046,18.58012,2.10927,2.25993,7.65064,39.52829,6.55769,88.52879-0.622,27.88466-2.1859,68.30925-5.46474,72.13457s-24.59133,8.19711-45.90382,9.83653-97.3837,3.26-99.45827,0c-6.37553-10.01869-6.37553-45.90382-5.46474-46.99676,3.78414-4.541,84.43023-9.42668,101.64416-8.74358,1.09209,0.04334-2.55021-32.9706-1.09295-67.76278l-120.22428-25.1378C720.36149,243.93372,727.10134,213.69549,727.10134,213.69549Z" transform="translate(-77.6136 -50)"/><path class="a" d="M738.03082,409.33319s35.33865-1.27511,49.18266,2.1859c0,0-2.1859,37.34239-3.27884,59.01919l86.34289,10.92948s1.27511,123.50312-7.65064,133.33966c-1.474,1.6244-75.95989-7.95554-76.50636-9.23064C783.93463,600.47635,779.01637,566,789.39937,557h27.3237c-0.72863-14,0-29.02254,0-29.02254-20.4017-2.73237-66.852-6.31416-86.34289-11.7789C730.38018,516.19856,730.92666,458.88016,738.03082,409.33319Z" transform="translate(-77.6136 -50)"/><path class="a" d="M903.01788,213.60254s18.30688-9.83653,46.99676-19.67306a477.23505,477.23505,0,0,1,29.5096,79.7852s-19.53645,18.58012-44.81087,20.766C934.71337,294.4807,918.729,273.98792,903.01788,213.60254Z" transform="translate(-77.6136 -50)"/><path class="a" d="M993.45,193.5s23.16667-10.83333,50-5c0,0,9.25,23,14,80,0,0-21.60259,9.28453-46,8C1011.45,276.5,999.7,257.25,993.45,193.5Z" transform="translate(-77.6136 -50)"/><path class="a" d="M1108.1684,181c29.78283,1.5028,50.27561,15.30127,50.27561,15.30127-13.38861,52.73474-29.5096,87.43584-29.5096,87.43584-26.36737.81971-40.30246-4.91827-49.18266-12.02243C1081.52779,256.68665,1093.00375,207.09413,1108.1684,181Z" transform="translate(-77.6136 -50)"/><path class="a" d="M919.46019,318.6185c12.91045-5.533,32.37858-7.44571,50.27561,0-0.27324,22.1322-1.09295,46.99676-1.09295,46.99676C993.2,363.25,1021.45,369.5,1021.45,369.5c-1.75-9.75-1.5-27.83333-1.43858-27.92959-20.35616-1.09295-39.756-.40986-44.81087-5.46474-6.14935-6.14935-6.48939-50.13963,0-50.27561,58.67765-1.22957,193.99827,9.1079,196.73064,9.83653,8.8802,12.5689,7.65064,180.60966,3.27884,184.70821-35.794,6.83093-85.24994,5.46474-85.24994,5.46474-0.27324,5.05488.68309,21.31249,1.09295,25.1378,24.04486-2.869,74.73032-8.8802,83.064-8.74358,3.00561,9.83653,6.55769,29.373,6.55769,48.08971-12.02243,5.738-51.09532,9.5633-84.157,15.30127,0,7.78725,3.00561,28.55327,3.27884,51.36856-8.06049,2.04928-38.3898,6.69431-50.27561,4.37179-2.1859-12.29567-5.60136-34.29124-6.55769-48.08971-22.54205,2.869-92.21749,7.10416-102.73711,7.65064-12.70552-12.159-13.252-37.97994-12.02243-50.27561,16.39422-1.63942,91.671-12.29567,107.10891-14.20832-1.36619-6.14783-2.59575-21.859-3.27884-29.5096-40.84893,1.09295-96.58928-6.14783-110.38775-8.74358C901.973,442.6681,919.46019,318.6185,919.46019,318.6185Zm158.47746,50.9522c12.02243-.65056,33.24383-0.21685,45.90382,2.60226,0.36432-6.07193.72863-23.31189-1.09295-26.02257-8.74358,1.30113-37.97994-.32528-48.08971-1.30113C1074.6588,344.84925,1075.66067,356.01727,1077.93765,369.5707ZM967.5499,431.55646s12.11351-1.82158,59.01919,2.91453c0,0-1.62-15.59172-1.11911-23.971-0.13662.12144-32.72558,1.25035-58-3C967.45,407.5,967.36774,423.17719,967.5499,431.55646ZM1082.45,434.5s25.0428-2.504,40.29853-.029c0,0,1.13849-5.74194,2.1859-27.3237,0,0-10.696,4.55071-43.48443,4.35271C1081.45,411.5,1084.727,428.21357,1082.45,434.5Z" transform="translate(-77.6136 -50)"/><path class="a" d="M1301.45,400c0,193.29966-156.70034,350-350,350s-350-156.70034-350-350,156.70034-350,350-350S1301.45,206.70034,1301.45,400Zm-350-301.27841C785.05852,98.72159,650.17158,233.60853,650.17158,400S785.05852,701.27841,951.45,701.27841,1252.7284,566.39147,1252.7284,400,1117.84146,98.72159,951.45,98.72159Z" transform="translate(-77.6136 -50)"/><path class="a" d="M78.6136,232c44-1.66667,139,4,139,4,18.5-53.25,32-60,32-60,31,2.5,49,19,49,19a187.6885,187.6885,0,0,1-16,45c77.5,6,159,27,159,27,2.25,5,6.25,37.25,0,39s-175.26911-21.12359-177-17a144.1907,144.1907,0,0,1-29,44c113-4.5,162,14,162,14,6,131-18.68625,268.08615-21.33333,269.33333-34.66667,16.33333-79.90436,5.53648-79.90436,5.53648-8.4375-32.75-1.429-43.53648-1.429-43.53648,15.6875-1.5,33.71952,2.60917,33.71952,2.60917,6.61381-14.27583,5.28048-32.60919,5.28048-32.60919C280.1136,553.875,207.6136,548,207.6136,548c-1.25885,43.4082-4,70-4,70-26.5,8.08333-53-1-53-1-0.5-125,15-222,15-222-25,33-58,55-58,55-25-9.5-30-48-30-48,74.5-52.5,117-122,117-122-85-2.66667-111,1-111,1C77.3498,279.19313,78.6136,232,78.6136,232Zm269,156a903.12335,903.12335,0,0,1-131-5s2.5,8.25-2,41c0,0,66.66667-4.33333,131,8A219.96238,219.96238,0,0,0,347.6136,388Zm-6,83s-48.33333,5.66667-131-5c0,0,1,11.25-3,43,0,0,80.75-4.75,130,4C337.6136,513,338.8636,501.75,341.6136,471Z" transform="translate(-77.6136 -50)"/></svg>